<svg width="126" height="36" viewBox="0 0 126 36" fill="none" xmlns="http://www.w3.org/2000/svg">
<path d="M2.92822 10.3127C4.36169 7.49517 6.60011 5.04745 9.54133 3.34934C12.4825 1.65123 15.7223 0.936751 18.8788 1.10363C18.7009 4.69814 16.7603 8.13475 13.4182 10.0643C10.0761 11.9939 6.1301 11.9559 2.92822 10.3127Z" fill="white"/>
<path d="M8.2377 28.3089C7.96339 29.3312 7.77456 30.3648 7.67159 31.4038C5.96969 30.0935 4.49038 28.4348 3.34956 26.4588C2.20873 24.4828 1.51191 22.3724 1.22804 20.2433C2.17941 20.6737 3.16864 21.0265 4.19139 21.3005C6.54112 21.9301 8.95106 22.1104 11.3558 21.8364C9.91611 23.7819 8.86704 25.9587 8.2377 28.3089Z" fill="white"/>
<path d="M33.0721 25.6872C31.6384 28.5043 29.3998 30.9527 26.4586 32.6508C23.5173 34.349 20.2783 35.0636 17.1216 34.8963C17.2997 31.3022 19.2403 27.8656 22.5819 25.9363C25.9236 24.007 29.8705 24.0445 33.0721 25.6872Z" fill="white"/>
<path d="M34.8629 19.3718C34.77 20.5037 34.5638 21.6226 34.2482 22.7103C33.4447 22.3208 32.5981 22.005 31.7166 21.7688C28.0696 20.7916 24.2607 21.2934 20.9912 23.1811C17.7216 25.0688 15.3826 28.1164 14.4059 31.7632C14.1692 32.6449 14.0194 33.536 13.955 34.4267C12.8557 34.1558 11.7838 33.7754 10.7567 33.2902C10.7587 31.9034 10.942 30.5082 11.3106 29.1327C12.4213 24.9873 15.0795 21.5233 18.7954 19.3779C22.5113 17.2326 26.8408 16.6622 30.9857 17.7732C32.3605 18.1416 33.6612 18.6807 34.8629 19.3718Z" fill="white"/>
<path d="M5.01442 18.2274C3.63892 17.8589 2.33896 17.32 1.13696 16.6283C1.23005 15.4958 1.43704 14.377 1.7521 13.2896C2.55518 13.6794 3.40205 13.9956 4.28402 14.2316C7.93029 15.2086 11.7394 14.7072 15.009 12.8196C18.2785 10.9319 20.6172 7.88377 21.5947 4.23723C21.8309 3.35572 21.9808 2.46466 22.0452 1.57399C23.1446 1.84414 24.2168 2.22497 25.2437 2.71091C25.2414 4.09721 25.058 5.4932 24.6896 6.86797C23.579 11.0126 20.9211 14.4771 17.2047 16.6227C13.4883 18.7683 9.1595 19.3377 5.01442 18.2274Z" fill="white"/>
<path d="M32.6511 9.54157C33.7919 11.5175 34.4887 13.628 34.7724 15.7578C33.8208 15.327 32.8313 14.9737 31.8092 14.6999C29.4588 14.0701 27.0496 13.8899 24.6448 14.164C26.0845 12.2184 27.1329 10.0415 27.7629 7.69147C28.0365 6.66898 28.2253 5.63542 28.3283 4.59633C30.0309 5.90691 31.5102 7.5656 32.6511 9.54157Z" fill="white"/>
<path d="M119.051 29.5531L114.927 20.8801H112.996V29.5531H107.268V6.25049H116.498C118.985 6.25049 120.927 6.99233 122.323 8.47602C123.742 9.93789 124.451 11.6943 124.451 13.7453C124.451 15.2072 124.08 16.4618 123.338 17.5091C122.596 18.5346 121.702 19.3091 120.654 19.8328L125.694 29.5531H119.051ZM116.236 11.3889H112.996V16.1018H116.236C117 16.1018 117.6 15.8727 118.036 15.4145C118.494 14.9344 118.723 14.3781 118.723 13.7453C118.723 13.1126 118.494 12.5671 118.036 12.1089C117.6 11.6289 117 11.3889 116.236 11.3889Z" fill="white"/>
<path d="M97.4952 29.5531V18.3927L94.1896 24.153H90.524L87.2184 18.3927V29.5531H81.491V6.25049H87.1203L92.3568 16.5272L97.5934 6.25049H103.223V29.5531H97.4952Z" fill="white"/>
<path d="M68.02 22.4838C68.02 23.2475 68.2928 23.9021 68.8382 24.4475C69.4055 24.9712 70.1692 25.233 71.1292 25.233C72.0456 25.233 72.7438 25.1239 73.2238 24.9057C73.7039 24.6876 74.2166 24.3057 74.7621 23.7602L77.9695 26.9676C77.0094 27.9277 76.0167 28.6368 74.9912 29.095C73.9875 29.5314 72.7002 29.7496 71.1292 29.7496C68.7073 29.7496 66.7 29.1168 65.1072 27.8513C63.5362 26.564 62.7507 24.1966 62.7507 20.7492C62.7507 17.9346 63.4708 15.7309 64.9108 14.1381C66.3727 12.5453 68.2818 11.7489 70.6383 11.7489C73.1038 11.7489 75.0348 12.5453 76.4312 14.1381C77.8495 15.709 78.5586 17.6946 78.5586 20.0947V22.4838H68.02ZM72.962 17.5418C72.7656 17.1055 72.482 16.7673 72.1111 16.5273C71.762 16.2872 71.271 16.1672 70.6383 16.1672C70.0274 16.1672 69.5255 16.2982 69.1328 16.56C68.7619 16.8 68.4782 17.1273 68.2818 17.5418C68.1073 17.9346 68.02 18.3928 68.02 18.9164H73.2566C73.2566 18.5891 73.2347 18.3491 73.1911 18.1964C73.1693 18.0219 73.0929 17.8037 72.962 17.5418Z" fill="white"/>
<path d="M58.1241 27.2622C57.3605 28.0258 56.4332 28.604 55.3422 28.9968C54.2513 29.3677 53.0839 29.5531 51.8403 29.5531H43.2V6.25049H51.8403C53.1276 6.25049 54.2949 6.43595 55.3422 6.80687C56.4113 7.17779 57.3386 7.7669 58.1241 8.57421C58.9314 9.35969 59.5314 10.2761 59.9242 11.3234C60.3388 12.3489 60.546 13.9853 60.546 16.2327V17.9018V19.6364C60.546 21.4474 60.4042 22.9093 60.1206 24.022C59.8587 25.113 59.1933 26.193 58.1241 27.2622ZM54.1967 12.6653C53.9131 12.2289 53.5531 11.9016 53.1167 11.6834C52.7021 11.4652 52.1457 11.3561 51.4475 11.3561H48.9274V24.4475H51.4475C52.1239 24.4475 52.6803 24.3384 53.1167 24.1202C53.5531 23.8802 53.9022 23.5638 54.164 23.1711C54.4476 22.7784 54.6222 22.2874 54.6876 21.6983C54.7749 21.0874 54.8186 19.8219 54.8186 17.9018C54.8186 16.0036 54.7749 14.749 54.6876 14.138C54.6004 13.5053 54.4367 13.0144 54.1967 12.6653Z" fill="white"/>
</svg>
