<svg width="32" height="32" viewBox="0 0 32 32" fill="none" xmlns="http://www.w3.org/2000/svg">
<path fill-rule="evenodd" clip-rule="evenodd" d="M12.3889 8.78137L20.6705 4L23.438 8.79337L12.3889 8.78137Z" stroke="white" stroke-width="1.5" stroke-linecap="round" stroke-linejoin="round"/>
<path d="M4 9.99981C4 9.33705 4.53726 8.7998 5.20001 8.7998H26.8002C27.4629 8.7998 28.0002 9.33705 28.0002 9.99981V26.7999C28.0002 27.4627 27.4629 27.9999 26.8002 27.9999H5.20001C4.53726 27.9999 4 27.4627 4 26.7999V9.99981Z" stroke="white" stroke-width="1.5" stroke-linejoin="round"/>
<path d="M22.7499 21.4002H27.9999V15.4001H22.7499C21.0102 15.4001 19.5999 16.7433 19.5999 18.4002C19.5999 20.057 21.0102 21.4002 22.7499 21.4002Z" stroke="white" stroke-width="1.5" stroke-linejoin="round"/>
<path d="M28 11.5V25.9001" stroke="white" stroke-width="1.5" stroke-linecap="round"/>
</svg>
